Coordinates
nRows=437
nColumns=2
inDegrees=yes
endheader
time	ankle_angle_r	
1.43044	 18.598444	
1.46371	 18.587772	
1.49698	 18.590113	
1.53024	 18.598276	
1.56351	 18.600532	
1.59677	 18.602284	
1.63004	 18.610787	
1.66331	 18.620573	
1.69657	 18.628791	
1.72984	 18.638637	
1.7631	 18.646553	
1.79637	 18.642888	
1.82964	 18.623725	
1.8629	 18.601554	
1.89617	 18.597053	
1.92944	 18.613625	
1.9627	 18.635605	
1.99597	 18.650756	
2.02923	 18.659353	
2.0625	 18.665850	
2.09577	 18.667951	
2.12903	 18.660644	
2.1623	 18.650216	
2.19556	 18.645405	
2.22883	 18.643353	
2.2621	 18.642046	
2.29536	 18.646784	
2.32863	 18.658472	
2.3619	 18.671977	
2.39516	 18.680648	
2.42843	 18.680634	
2.46169	 18.674535	
2.49496	 18.664520	
2.52823	 18.648859	
2.56149	 18.630076	
2.59476	 18.617435	
2.62802	 18.619802	
2.66129	 18.636572	
2.69456	 18.655512	
2.72782	 18.666469	
2.76109	 18.673964	
2.79435	 18.684966	
2.82762	 18.695656	
2.86089	 18.700789	
2.89415	 18.697794	
2.92742	 18.682922	
2.96069	 18.663443	
2.99395	 18.656440	
3.02722	 18.662854	
3.06048	 18.666869	
3.09375	 18.661414	
3.12702	 18.656194	
3.16028	 18.661645	
3.19355	 18.673885	
3.22681	 18.683470	
3.26008	 18.690002	
3.29335	 18.696207	
3.32661	 18.700058	
3.35988	 18.699186	
3.39315	 18.693923	
3.42641	 18.686836	
3.45968	 18.681498	
3.49294	 18.679212	
3.52621	 18.679896	
3.55948	 18.683782	
3.59274	 18.688133	
3.62601	 18.689790	
3.65927	 18.689798	
3.69254	 18.688458	
3.72581	 18.684788	
3.75907	 18.681709	
3.79234	 18.681638	
3.8256	 18.683422	
3.85887	 18.685932	
3.89214	 18.686548	
3.9254	 18.683229	
3.95867	 18.679646	
3.99194	 18.678616	
4.0252	 18.678787	
4.05847	 18.680341	
4.09173	 18.681963	
4.125	 18.679203	
4.15827	 18.671941	
4.19153	 18.664882	
4.2248	 18.660843	
4.25806	 18.656601	
4.29133	 18.650680	
4.3246	 18.652466	
4.35786	 18.665278	
4.39113	 18.673073	
4.4244	 18.664647	
4.45766	 18.651384	
4.49093	 18.649413	
4.52419	 18.657267	
4.55746	 18.658541	
4.59073	 18.648388	
4.62399	 18.644603	
4.65726	 18.658609	
4.69052	 18.676669	
4.72379	 18.681971	
4.75706	 18.672189	
4.79032	 18.655939	
4.82359	 18.645771	
4.85685	 18.648085	
4.89012	 18.657905	
4.92339	 18.666599	
4.95665	 18.670995	
4.98992	 18.672751	
5.02319	 18.674040	
5.05645	 18.676620	
5.08972	 18.681325	
5.12298	 18.688598	
5.15625	 18.698382	
5.18952	 18.708091	
5.22278	 18.713960	
5.25605	 18.713672	
5.28931	 18.708157	
5.32258	 18.700989	
5.35585	 18.692770	
5.38911	 18.682031	
5.42238	 18.674129	
5.45565	 18.675472	
5.48891	 18.678718	
5.52218	 18.671672	
5.55544	 18.656123	
5.58871	 18.641450	
5.62198	 18.630856	
5.65524	 18.624589	
5.68851	 18.626277	
5.72177	 18.638985	
5.75504	 18.654575	
5.78831	 18.657271	
5.82157	 18.644442	
5.85484	 18.629103	
5.8881	 18.622765	
5.92137	 18.625936	
5.95464	 18.630930	
5.9879	 18.636142	
6.02117	 18.648219	
6.05444	 18.662314	
6.0877	 18.666610	
6.12097	 18.663968	
6.15423	 18.659495	
6.1875	 18.647078	
6.22077	 18.626940	
6.25403	 18.609663	
6.2873	 18.600528	
6.32056	 18.597938	
6.35383	 18.601772	
6.3871	 18.613856	
6.42036	 18.629421	
6.45363	 18.636327	
6.4869	 18.630663	
6.52016	 18.623986	
6.55343	 18.628756	
6.58669	 18.642843	
6.61996	 18.650472	
6.65323	 18.642914	
6.68649	 18.635657	
6.71976	 18.647596	
6.75302	 18.673610	
6.78629	 18.697941	
6.81956	 18.714555	
6.85282	 18.724012	
6.88609	 18.728302	
6.91935	 18.726478	
6.95262	 18.714812	
6.98589	 18.700383	
7.01915	 18.698774	
7.05242	 18.712612	
7.08569	 18.730457	
7.11895	 18.741129	
7.15222	 18.741379	
7.18548	 18.738143	
7.21875	 18.738181	
7.25202	 18.738900	
7.28528	 18.737988	
7.31855	 18.738527	
7.35181	 18.742000	
7.38508	 18.746480	
7.41835	 18.746918	
7.45161	 18.739098	
7.48488	 18.729675	
7.51815	 18.728476	
7.55141	 18.732581	
7.58468	 18.734796	
7.61794	 18.735265	
7.65121	 18.734733	
7.68448	 18.730065	
7.71774	 18.718863	
7.75101	 18.704393	
7.78427	 18.694624	
7.81754	 18.692890	
7.85081	 18.693994	
7.88407	 18.690197	
7.91734	 18.676405	
7.9506	 18.655644	
7.98387	 18.638079	
8.01714	 18.628837	
8.0504	 18.626319	
8.08367	 18.629305	
8.11694	 18.633507	
8.1502	 18.633032	
8.18347	 18.631794	
8.21673	 18.637810	
8.25	 18.647302	
8.28327	 18.648333	
8.31653	 18.638852	
8.3498	 18.632485	
8.38306	 18.638430	
8.41633	 18.646339	
8.4496	 18.646107	
8.48286	 18.642907	
8.51613	 18.642243	
8.5494	 18.643740	
8.58266	 18.647747	
8.61593	 18.648114	
8.64919	 18.634885	
8.68246	 18.614608	
8.71573	 18.603937	
8.74899	 18.606350	
8.78226	 18.612904	
8.81552	 18.615737	
8.84879	 18.616578	
8.88206	 18.624320	
8.91532	 18.639295	
8.94859	 18.651220	
8.98185	 18.656971	
9.01512	 18.662611	
9.04839	 18.670530	
9.08165	 18.678921	
9.11492	 18.688380	
9.14819	 18.700905	
9.18145	 18.713631	
9.21472	 18.720312	
9.24798	 18.720918	
9.28125	 18.721025	
9.31452	 18.722767	
9.34778	 18.725011	
9.38105	 18.727011	
9.41431	 18.728174	
9.44758	 18.729041	
9.48085	 18.729729	
9.51411	 18.729002	
9.54738	 18.729092	
9.58065	 18.733192	
9.61391	 18.738874	
9.64718	 18.741982	
9.68044	 18.740898	
9.71371	 18.736747	
9.74698	 18.734286	
9.78024	 18.735413	
9.81351	 18.736377	
9.84677	 18.737587	
9.88004	 18.741308	
9.91331	 18.742596	
9.94657	 18.738413	
9.97984	 18.733635	
10.0131	 18.731420	
10.0464	 18.731177	
10.0796	 18.730269	
10.1129	 18.719766	
10.1462	 18.693284	
10.1794	 18.660729	
10.2127	 18.639731	
10.246	 18.637202	
10.2792	 18.644130	
10.3125	 18.647516	
10.3458	 18.643692	
10.379	 18.634575	
10.4123	 18.623175	
10.4456	 18.618316	
10.4788	 18.627589	
10.5121	 18.646992	
10.5454	 18.667250	
10.5786	 18.681303	
10.6119	 18.685583	
10.6452	 18.683304	
10.6784	 18.681057	
10.7117	 18.681483	
10.745	 18.683914	
10.7782	 18.687834	
10.8115	 18.693512	
10.8448	 18.698425	
10.878	 18.696355	
10.9113	 18.687453	
10.9446	 18.680681	
10.9778	 18.680144	
11.0111	 18.683164	
11.0444	 18.688518	
11.0776	 18.693026	
11.1109	 18.691940	
11.1442	 18.687071	
11.1774	 18.682640	
11.2107	 18.680091	
11.244	 18.681571	
11.2772	 18.686418	
11.3105	 18.689282	
11.3437	 18.689898	
11.377	 18.692610	
11.4103	 18.697044	
11.4435	 18.699706	
11.4768	 18.699077	
11.5101	 18.697656	
11.5433	 18.698825	
11.5766	 18.699053	
11.6099	 18.693912	
11.6431	 18.687428	
11.6764	 18.682710	
11.7097	 18.676045	
11.7429	 18.664188	
11.7762	 18.647376	
11.8095	 18.631343	
11.8427	 18.624748	
11.876	 18.629038	
11.9093	 18.639905	
11.9425	 18.653209	
11.9758	 18.665028	
12.0091	 18.674758	
12.0423	 18.683411	
12.0756	 18.692213	
12.1089	 18.705394	
12.1421	 18.721504	
12.1754	 18.731825	
12.2087	 18.735282	
12.2419	 18.738168	
12.2752	 18.742082	
12.3085	 18.745599	
12.3417	 18.746669	
12.375	 18.741560	
12.4083	 18.733681	
12.4415	 18.731386	
12.4748	 18.734065	
12.5081	 18.736328	
12.5413	 18.737334	
12.5746	 18.738008	
12.6079	 18.738750	
12.6411	 18.737921	
12.6744	 18.733397	
12.7077	 18.729165	
12.7409	 18.729119	
12.7742	 18.729183	
12.8075	 18.726007	
12.8407	 18.721704	
12.874	 18.718813	
12.9073	 18.717898	
12.9405	 18.716031	
12.9738	 18.709730	
13.0071	 18.699023	
13.0403	 18.684920	
13.0736	 18.670404	
13.1069	 18.660296	
13.1401	 18.654112	
13.1734	 18.648025	
13.2067	 18.639404	
13.2399	 18.626891	
13.2732	 18.615308	
13.3065	 18.610207	
13.3397	 18.607763	
13.373	 18.603002	
13.4062	 18.596873	
13.4395	 18.591582	
13.4728	 18.590105	
13.506	 18.594447	
13.5393	 18.600350	
13.5726	 18.603407	
13.6058	 18.605482	
13.6391	 18.607278	
13.6724	 18.606796	
13.7056	 18.606534	
13.7389	 18.609126	
13.7722	 18.611298	
13.8054	 18.610485	
13.8387	 18.607689	
13.872	 18.605047	
13.9052	 18.607990	
13.9385	 18.618096	
13.9718	 18.629291	
14.005	 18.638937	
14.0383	 18.644722	
14.0716	 18.640718	
14.1048	 18.629627	
14.1381	 18.620939	
14.1714	 18.620859	
14.2046	 18.631957	
14.2379	 18.651882	
14.2712	 18.674350	
14.3044	 18.693106	
14.3377	 18.703549	
14.371	 18.707653	
14.4042	 18.712159	
14.4375	 18.718714	
14.4708	 18.725068	
14.504	 18.729936	
14.5373	 18.731789	
14.5706	 18.731007	
14.6038	 18.730550	
14.6371	 18.731808	
14.6704	 18.734260	
14.7036	 18.736653	
14.7369	 18.738045	
14.7702	 18.739986	
14.8034	 18.743001	
14.8367	 18.744490	
14.87	 18.744939	
14.9032	 18.746501	
14.9365	 18.747434	
14.9698	 18.747167	
15.003	 18.746823	
15.0363	 18.744112	
15.0696	 18.738704	
15.1028	 18.733693	
15.1361	 18.730286	
15.1694	 18.731448	
15.2026	 18.737947	
15.2359	 18.738038	
15.2692	 18.721076	
15.3024	 18.695420	
15.3357	 18.676852	
15.369	 18.668853	
15.4022	 18.664846	
15.4355	 18.662085	
15.4687	 18.663773	
15.502	 18.669926	
15.5353	 18.672098	
15.5685	 18.661411	
15.6018	 18.642983	
15.6351	 18.634313	
15.6683	 18.645430	
15.7016	 18.667257	
15.7349	 18.682440	
15.7681	 18.682827	
15.8014	 18.673158	
15.8347	 18.662556	
15.8679	 18.656285	
15.9012	 18.652596	
15.9345	 18.647722	
